<svg width="52" height="53" viewBox="0 0 52 53" fill="none" xmlns="http://www.w3.org/2000/svg">
<mask id="mask0_47_762" style="mask-type:luminance" maskUnits="userSpaceOnUse" x="4" y="0" width="44" height="45">
<path fill-rule="evenodd" clip-rule="evenodd" d="M4 22.4861C4 10.3986 13.8497 0.599854 26 0.599854C38.1503 0.599854 48 10.3986 48 22.4861C48 34.5735 38.1503 44.3723 26 44.3723C13.8497 44.3723 4 34.5735 4 22.4861Z" fill="white"/>
</mask>
<g mask="url(#mask0_47_762)">
<g filter="url(#filter0_d_47_762)">
<path fill-rule="evenodd" clip-rule="evenodd" d="M4 22.4861C4 10.3986 13.8497 0.599854 26 0.599854C38.1503 0.599854 48 10.3986 48 22.4861C48 34.5735 38.1503 44.3723 26 44.3723C13.8497 44.3723 4 34.5735 4 22.4861Z" fill="#0E5A4C"/>
</g>
<g filter="url(#filter1_d_47_762)">
<path fill-rule="evenodd" clip-rule="evenodd" d="M26.001 10.8134C22.8144 10.8134 22.4145 10.8272 21.1629 10.8839C19.9138 10.9408 19.0612 11.1375 18.3151 11.4262C17.5434 11.7243 16.8888 12.1231 16.2366 12.7722C15.5839 13.421 15.183 14.0722 14.8824 14.8397C14.5915 15.5822 14.3935 16.4306 14.3372 17.6728C14.2813 18.9179 14.2666 19.316 14.2666 22.4861C14.2666 25.6562 14.2808 26.0529 14.3375 27.298C14.3949 28.5406 14.5927 29.3889 14.8826 30.1311C15.1825 30.8988 15.5834 31.55 16.2359 32.1988C16.8878 32.8481 17.5424 33.2479 18.3137 33.5461C19.0602 33.8347 19.9131 34.0315 21.162 34.0884C22.4135 34.145 22.8132 34.1589 25.9996 34.1589C29.1864 34.1589 29.5851 34.145 30.8367 34.0884C32.0858 34.0315 32.9394 33.8347 33.686 33.5461C34.4574 33.2479 35.1111 32.8481 35.763 32.1988C36.4157 31.55 36.8166 30.8988 37.1173 30.1313C37.4057 29.3889 37.6037 28.5404 37.6624 27.2982C37.7186 26.0531 37.7333 25.6562 37.7333 22.4861C37.7333 19.316 37.7186 18.9181 37.6624 17.673C37.6037 16.4304 37.4057 15.5822 37.1173 14.84C36.8166 14.0722 36.4157 13.421 35.763 12.7722C35.1104 12.1229 34.4577 11.7241 33.6852 11.4262C32.9372 11.1375 32.0841 10.9408 30.835 10.8839C29.5834 10.8272 29.185 10.8134 25.9974 10.8134H26.001ZM24.9486 12.9172C25.261 12.9167 25.6096 12.9172 26.0012 12.9172C29.134 12.9172 29.5053 12.9284 30.7425 12.9843C31.8865 13.0363 32.5074 13.2265 32.921 13.3863C33.4686 13.5978 33.8589 13.8508 34.2694 14.2593C34.68 14.6678 34.9343 15.0569 35.1474 15.6017C35.308 16.0126 35.4994 16.6303 35.5515 17.7684C35.6077 18.9989 35.6199 19.3686 35.6199 22.4837C35.6199 25.5989 35.6077 25.9685 35.5515 27.199C35.4992 28.3371 35.308 28.9548 35.1474 29.3658C34.9347 29.9105 34.68 30.2984 34.2694 30.7067C33.8587 31.1153 33.4688 31.3682 32.921 31.5797C32.5079 31.7402 31.8865 31.9299 30.7425 31.982C29.5056 32.0379 29.134 32.05 26.0012 32.05C22.8681 32.05 22.4968 32.0379 21.2599 31.982C20.1159 31.9294 19.495 31.7393 19.0811 31.5795C18.5336 31.3679 18.1425 31.115 17.7318 30.7065C17.3211 30.2979 17.0669 29.9098 16.8537 29.3648C16.6931 28.9538 16.5017 28.3362 16.4497 27.1981C16.3934 25.9676 16.3822 25.5979 16.3822 22.4808C16.3822 19.3637 16.3934 18.996 16.4497 17.7655C16.502 16.6274 16.6931 16.0097 16.8537 15.5983C17.0664 15.0535 17.3211 14.6644 17.7318 14.2559C18.1425 13.8473 18.5336 13.5944 19.0811 13.3824C19.4947 13.2219 20.1159 13.0322 21.2599 12.9799C22.3423 12.9313 22.7618 12.9167 24.9486 12.9143V12.9172ZM32.2643 14.8551C31.487 14.8551 30.8563 15.4818 30.8563 16.2553C30.8563 17.0287 31.487 17.6561 32.2643 17.6561C33.0417 17.6561 33.6724 17.0287 33.6724 16.2553C33.6724 15.482 33.0417 14.8546 32.2643 14.8546V14.8551ZM26.0011 16.4919C22.6734 16.4919 19.9755 19.1759 19.9755 22.4864C19.9755 25.7968 22.6734 28.4796 26.0011 28.4796C29.3287 28.4796 32.0257 25.7968 32.0257 22.4864C32.0257 19.1759 29.3285 16.4919 26.0008 16.4919H26.0011ZM26.0012 18.5954C28.1612 18.5954 29.9124 20.3374 29.9124 22.4864C29.9124 24.6351 28.1612 26.3773 26.0012 26.3773C23.8411 26.3773 22.0901 24.6351 22.0901 22.4864C22.0901 20.3374 23.8411 18.5954 26.0012 18.5954Z" fill="white"/>
</g>
</g>
<defs>
<filter id="filter0_d_47_762" x="0" y="0.599854" width="52" height="51.7725" filterUnits="userSpaceOnUse" color-interpolation-filters="sRGB">
<feFlood flood-opacity="0" result="BackgroundImageFix"/>
<feColorMatrix in="SourceAlpha" type="matrix" values="0 0 0 0 0 0 0 0 0 0 0 0 0 0 0 0 0 0 127 0" result="hardAlpha"/>
<feOffset dy="4"/>
<feGaussianBlur stdDeviation="2"/>
<feComposite in2="hardAlpha" operator="out"/>
<feColorMatrix type="matrix" values="0 0 0 0 0 0 0 0 0 0 0 0 0 0 0 0 0 0 0.25 0"/>
<feBlend mode="normal" in2="BackgroundImageFix" result="effect1_dropShadow_47_762"/>
<feBlend mode="normal" in="SourceGraphic" in2="effect1_dropShadow_47_762" result="shape"/>
</filter>
<filter id="filter1_d_47_762" x="10.2666" y="10.8134" width="31.4667" height="31.3456" filterUnits="userSpaceOnUse" color-interpolation-filters="sRGB">
<feFlood flood-opacity="0" result="BackgroundImageFix"/>
<feColorMatrix in="SourceAlpha" type="matrix" values="0 0 0 0 0 0 0 0 0 0 0 0 0 0 0 0 0 0 127 0" result="hardAlpha"/>
<feOffset dy="4"/>
<feGaussianBlur stdDeviation="2"/>
<feComposite in2="hardAlpha" operator="out"/>
<feColorMatrix type="matrix" values="0 0 0 0 0 0 0 0 0 0 0 0 0 0 0 0 0 0 0.25 0"/>
<feBlend mode="normal" in2="BackgroundImageFix" result="effect1_dropShadow_47_762"/>
<feBlend mode="normal" in="SourceGraphic" in2="effect1_dropShadow_47_762" result="shape"/>
</filter>
</defs>
</svg>
