<svg width="32" height="33" viewBox="0 0 32 33" fill="none" xmlns="http://www.w3.org/2000/svg">
<g filter="url(#filter0_d_47_765)">
<path fill-rule="evenodd" clip-rule="evenodd" d="M16.001 0.813354C12.8144 0.813354 12.4145 0.827216 11.1629 0.883877C9.91382 0.940782 9.06118 1.13752 8.31513 1.42617C7.54341 1.72432 6.88878 2.12314 6.2366 2.77219C5.58393 3.421 5.18303 4.07224 4.88236 4.83973C4.59147 5.58217 4.39347 6.43063 4.33725 7.67281C4.28127 8.9179 4.2666 9.31599 4.2666 12.4861C4.2666 15.6562 4.28078 16.0529 4.33749 17.298C4.39494 18.5406 4.59269 19.3889 4.88261 20.1311C5.18254 20.8988 5.58344 21.55 6.23587 22.1988C6.88781 22.8481 7.54244 23.2479 8.31367 23.5461C9.06021 23.8347 9.91308 24.0315 11.162 24.0884C12.4135 24.145 12.8132 24.1589 15.9996 24.1589C19.1864 24.1589 19.5851 24.145 20.8367 24.0884C22.0858 24.0315 22.9394 23.8347 23.686 23.5461C24.4574 23.2479 25.1111 22.8481 25.763 22.1988C26.4157 21.55 26.8166 20.8988 27.1173 20.1313C27.4057 19.3889 27.6037 18.5404 27.6624 17.2982C27.7186 16.0531 27.7333 15.6562 27.7333 12.4861C27.7333 9.31599 27.7186 8.91814 27.6624 7.67305C27.6037 6.43039 27.4057 5.58217 27.1173 4.83997C26.8166 4.07224 26.4157 3.421 25.763 2.77219C25.1104 2.12289 24.4577 1.72407 23.6852 1.42617C22.9372 1.13752 22.0841 0.940782 20.835 0.883877C19.5834 0.827216 19.185 0.813354 15.9974 0.813354H16.001ZM14.9486 2.91717C15.261 2.91669 15.6096 2.91717 16.0012 2.91717C19.134 2.91717 19.5053 2.92836 20.7425 2.98429C21.8865 3.03633 22.5074 3.2265 22.921 3.38627C23.4686 3.59784 23.8589 3.85075 24.2694 4.2593C24.68 4.66784 24.9343 5.05694 25.1474 5.60167C25.308 6.01264 25.4994 6.63033 25.5515 7.76842C25.6077 8.99893 25.6199 9.36856 25.6199 12.4837C25.6199 15.5989 25.6077 15.9685 25.5515 17.199C25.4992 18.3371 25.308 18.9548 25.1474 19.3658C24.9347 19.9105 24.68 20.2984 24.2694 20.7067C23.8587 21.1153 23.4688 21.3682 22.921 21.5797C22.5079 21.7402 21.8865 21.9299 20.7425 21.982C19.5056 22.0379 19.134 22.05 16.0012 22.05C12.8681 22.05 12.4968 22.0379 11.2599 21.982C10.1159 21.9294 9.49499 21.7393 9.08114 21.5795C8.53358 21.3679 8.14246 21.115 7.73179 20.7065C7.32112 20.2979 7.0669 19.9098 6.85374 19.3648C6.69314 18.9538 6.50174 18.3362 6.44967 17.1981C6.39345 15.9676 6.3822 15.5979 6.3822 12.4808C6.3822 9.3637 6.39345 8.99601 6.44967 7.7655C6.50198 6.62741 6.69314 6.00973 6.85374 5.59826C7.06641 5.05353 7.32112 4.66444 7.73179 4.25589C8.14246 3.84735 8.53358 3.59444 9.08114 3.38238C9.49475 3.22188 10.1159 3.0322 11.2599 2.97991C12.3423 2.93128 12.7618 2.91669 14.9486 2.91425V2.91717ZM22.2643 4.8551C21.487 4.8551 20.8563 5.48178 20.8563 6.25535C20.8563 7.02867 21.487 7.65608 22.2643 7.65608C23.0417 7.65608 23.6724 7.02867 23.6724 6.25535C23.6724 5.48203 23.0417 4.85462 22.2643 4.85462V4.8551ZM16.0011 6.49192C12.6734 6.49192 9.97546 9.17592 9.97546 12.4864C9.97546 15.7968 12.6734 18.4796 16.0011 18.4796C19.3287 18.4796 22.0257 15.7968 22.0257 12.4864C22.0257 9.17592 19.3285 6.49192 16.0008 6.49192H16.0011ZM16.0012 8.59545C18.1612 8.59545 19.9124 10.3374 19.9124 12.4864C19.9124 14.6351 18.1612 16.3773 16.0012 16.3773C13.8411 16.3773 12.0901 14.6351 12.0901 12.4864C12.0901 10.3374 13.8411 8.59545 16.0012 8.59545Z" fill="white"/>
</g>
<defs>
<filter id="filter0_d_47_765" x="0.266602" y="0.813354" width="31.4667" height="31.3456" filterUnits="userSpaceOnUse" color-interpolation-filters="sRGB">
<feFlood flood-opacity="0" result="BackgroundImageFix"/>
<feColorMatrix in="SourceAlpha" type="matrix" values="0 0 0 0 0 0 0 0 0 0 0 0 0 0 0 0 0 0 127 0" result="hardAlpha"/>
<feOffset dy="4"/>
<feGaussianBlur stdDeviation="2"/>
<feComposite in2="hardAlpha" operator="out"/>
<feColorMatrix type="matrix" values="0 0 0 0 0 0 0 0 0 0 0 0 0 0 0 0 0 0 0.25 0"/>
<feBlend mode="normal" in2="BackgroundImageFix" result="effect1_dropShadow_47_765"/>
<feBlend mode="normal" in="SourceGraphic" in2="effect1_dropShadow_47_765" result="shape"/>
</filter>
</defs>
</svg>
